PathFileType	4	(X/Y/Z)	Patient4_TMGait_0pt4_03_right_27.trc.trc
DataRate	CameraRate	NumFrames	NumMarkers	Units	OrigDataRate	OrigDataStartFrame	OrigNumFrames
76.923076923077	76.923076923077	4	33	mm	76.923076923077	89	       141
Frame#	Time	Sacral			L.Shoulder			Chest			R.Shoulder			Neck			R.ASIS			L.ASIS			R.Thigh.Superior			R.Thigh.Lateral			R.Thigh.Inferior			R.Patella			L.Thigh.Superior			L.Thigh.Lateral			L.Thigh.Inferior			L.Patella			L.Shank.Superior			L.Shank.Lateral			L.Shank.Inferior			R.Shank.Superior			R.Shank.Lateral			R.Shank.Inferior			R.Heel			R.Midfoot.Superior			R.Midfoot.Lateral			R.Toe			L.Heel			L.Midfoot.Lateral			L.Midfoot.Superior			L.Toe			L.Elbow			L.Wrist			R.Elbow			R.Wrist			
		X1	Y1	Z1	X2	Y2	Z2	X3	Y3	Z3	X4	Y4	Z4	X5	Y5	Z5	X6	Y6	Z6	X7	Y7	Z7	X8	Y8	Z8	X9	Y9	Z9	X10	Y10	Z10	X11	Y11	Z11	X12	Y12	Z12	X13	Y13	Z13	X14	Y14	Z14	X15	Y15	Z15	X16	Y16	Z16	X17	Y17	Z17	X18	Y18	Z18	X19	Y19	Z19	X20	Y20	Z20	X21	Y21	Z21	X22	Y22	Z22	X23	Y23	Z23	X24	Y24	Z24	X25	Y25	Z25	X26	Y26	Z26	X27	Y27	Z27	X28	Y28	Z28	X29	Y29	Z29	X30	Y30	Z30	X31	Y31	Z31	X32	Y32	Z32	X33	Y33	Z33	

89	36.084000000000	845.926366878703	1004.657427516847	447.521549751909	989.181048595564	1427.833416986450	234.786684279978	1118.588786474209	1364.423592943732	378.119758729151	1064.372123494738	1441.306310535698	562.058191452410	997.707903837875	1494.160622664724	389.719874876808	1085.720360398443	939.941880418982	534.292941375957	1039.874480629179	959.156744117164	264.498672678490	1113.401323973850	732.322942383055	508.882990966911	1035.243633044208	624.773597613730	580.640726776545	1104.453335118076	565.016551358682	498.333815810871	1095.937508369576	459.808016301282	517.713499230652	1109.948586086877	760.434815379461	287.067678209705	1029.848242942841	635.983861527727	232.815698689981	1129.679450805012	568.248190156816	284.792897846782	1138.397432558620	498.152415009272	291.282862613375	1113.972353199986	423.824307608916	284.939272825618	1025.316780250282	306.005978099409	239.792808419994	1088.492415017097	195.693699433598	302.833161741136	1025.844686432302	389.648725940077	528.520970497000	916.265471152185	335.025187544844	598.346732525123	908.570424034203	227.065060797259	543.889750084836	714.414542504003	129.076520446065	528.697806379504	892.492218942699	112.220291037173	558.395519959222	789.982799826655	86.742701759923	598.213061291572	982.975689971851	33.985710078407	580.237240398662	972.169598240734	38.293579114995	353.179301861039	1039.323570017927	35.377048222285	266.717389939162	1124.102872558246	97.190462008025	287.943796301174	1250.144356604299	46.420922667391	248.754134844016	924.232047601156	1080.847062591627	122.350740320305	1024.122527200811	837.178641452041	101.093751086319	1135.990409095143	1102.743490450603	682.977184437176	1343.680956288888	1004.566484122007	570.482505776886	
90	36.097000000000	844.927317414193	1004.945495215819	444.581929115682	991.133416682508	1427.621764760809	231.209467637536	1119.061431172155	1364.254979200087	375.833260164413	1063.481183972769	1441.747627284071	559.088728757555	998.414664271582	1494.288471101914	386.075859982215	1084.183713818360	940.264302498526	532.670831289703	1039.891844987194	959.324412220535	262.637566483718	1117.550375317142	734.811534089636	506.769255939819	1043.054833814175	625.428944113985	578.898082644992	1114.364103700462	567.107610201912	496.743949316034	1107.512528122256	460.602467436581	516.841561871023	1108.430462466472	759.667694438997	285.250251908187	1027.657823212371	636.046656074148	231.053911096334	1126.519817105029	567.638709597460	283.670007840093	1134.570332400837	497.575262810303	290.286324173923	1110.056531864162	423.351127629080	283.949011105296	1021.259699607975	305.663874631181	238.885190327871	1083.762343009368	195.347916303959	302.458378459693	1035.479270831061	391.026439541616	527.505144556844	923.865000003874	340.210675873363	596.995048574810	913.359478992223	232.140638146546	543.504940196567	716.451570950154	142.472231181146	528.062630399201	893.262839637550	116.286861356181	558.382644749797	789.360508476972	96.158069478945	597.743703619710	978.697738886281	33.063457874656	580.360164232041	966.931417828713	38.260859924921	353.115505725175	1034.068776333320	35.295371496396	266.631942819921	1118.901590599830	97.008410347194	287.899929460993	1244.962877849281	46.120490707485	248.720903345339	928.592363097585	1080.781864207336	117.114816481735	1033.547309828583	839.118548493671	96.613866220233	1129.971177093344	1102.350979889347	681.467302323885	1334.615485104766	993.937368992232	571.941353184902	
91	36.110000000000	843.789868254409	1005.105393818453	441.686838974238	993.094122075436	1427.279530725683	227.824265413106	1119.444479448699	1363.959932201394	373.802482664147	1062.406370684778	1442.043361340154	556.354046850063	999.111948881469	1494.310396208060	382.623022597321	1082.520744696966	940.495431801603	531.212384283852	1039.890009675139	959.455622141043	260.915526594412	1121.629040976544	737.575731198953	504.764409046958	1050.941179432801	626.421950992027	577.331202279819	1124.299388795549	569.648852716108	495.328653272261	1119.246612406489	461.958578962109	515.987919254848	1106.964171234875	758.974363788564	283.601777591642	1025.631483207333	636.106879734868	229.352564854786	1123.543834974974	567.061457501484	282.581058416595	1130.961586980163	497.001514230557	289.317788348312	1106.327457735699	422.861874307321	283.000788463465	1017.348727635268	305.345319348907	237.988104378197	1079.126869903856	195.000841062045	302.093005647677	1045.444320148868	392.822241436766	526.496135289569	931.973721244860	345.699861073426	595.634014921153	918.729817129746	237.625656734193	543.047214095388	719.502640878898	156.320963938126	527.246667222873	894.647436207015	120.891524497962	558.250959841935	789.554232559923	106.161359524351	597.130815410320	974.901805658193	32.201628053075	580.463233126012	961.716833025949	38.243017241727	353.039075659275	1028.840696299140	35.230093664695	266.539007146565	1113.723663903593	96.847920564479	287.846443962692	1239.802289893741	45.842039892258	248.676520445629	932.929935269675	1080.699694203994	111.859450698237	1042.885045974357	841.140409954165	92.197076077630	1123.407475232938	1101.698359436654	679.990956013620	1324.725920663337	983.055513164518	574.088123394731	
92	36.123000000000	842.539525710583	1005.179832985842	438.827803422621	995.023177831723	1426.852103806549	224.661935568414	1119.723572210829	1363.592824402024	372.036330963586	1061.146861721008	1442.230691223866	553.871501365169	999.782833961457	1494.264907064525	379.392016771152	1080.761362843181	940.686335208678	529.899871615016	1039.901491516597	959.573506534502	259.332865759113	1125.525027425047	740.611786642836	502.895337954388	1058.707868176181	627.801318057201	575.952262182274	1134.033208196000	572.664924171344	494.101368932053	1130.921059082561	463.903601389829	515.183242577209	1105.590897048985	758.354982432713	282.050985288430	1023.725177086006	636.147682207579	227.741879136713	1120.750923918411	566.501725069032	281.497785772046	1127.581671797145	496.432274575231	288.379923920201	1102.787413004879	422.358587488137	282.106855925107	1013.571116342902	305.059127456391	237.129091101154	1074.582813459454	194.657181457366	301.745805347329	1055.550160182365	395.056843984854	525.532100601147	940.413230141734	351.410932321690	594.288573135613	924.611168564818	243.408915491017	542.535132118141	723.544232730808	170.188262907729	526.261639980483	896.715861500751	125.907525655456	557.993379037174	790.651843897642	116.416921451122	596.366357821431	971.823383162044	31.519410917566	580.491757428628	956.522052436409	38.238818392808	352.952809325439	1023.635791043366	35.180914493455	266.441351223224	1108.564243420886	96.711007937525	287.784206760606	1234.657294004848	45.589267491315	248.620948446847	937.250193950061	1080.630785365087	106.626895431754	1052.112861215331	843.265428705735	87.874043490529	1116.318655793794	1100.832214773937	678.519482589960	1314.004690310826	971.953325575216	576.962757926053	
